<svg width="156" height="48" viewBox="0 0 156 48" fill="none" xmlns="http://www.w3.org/2000/svg">
    <g clip-path="url(#clip0_2316_14994)">
        <path d="M150.867 22.7512L148.864 19.8354L151.359 16.27H155.402L150.867 22.7512Z" fill="#5BD79D"/>
        <path d="M155.39 32.2173H151.234L147.754 27.1831L144.232 32.2172H140.189L145.745 24.2762L140.211 16.27H144.435L155.39 32.2173Z" fill="#1A1D23"/>
        <path d="M134.92 32.2313V21.2535H138.376V32.2313H134.92ZM136.66 19.7401C136.118 19.7401 135.666 19.5594 135.304 19.198C134.958 18.8215 134.785 18.3698 134.785 17.8427C134.785 17.3006 134.958 16.8488 135.304 16.4874C135.666 16.126 136.118 15.9453 136.66 15.9453C137.202 15.9453 137.646 16.126 137.992 16.4874C138.339 16.8488 138.512 17.3006 138.512 17.8427C138.512 18.3698 138.339 18.8215 137.992 19.198C137.646 19.5594 137.202 19.7401 136.66 19.7401Z" fill="#1A1D23"/>
        <path d="M127.457 24.19V32.2314H130.913V24.19H133.398V21.2536H130.913V16.7134H127.457V21.2536H124.972V24.19H127.457Z" fill="#1A1D23"/>
        <path d="M119.551 32.5021C118.903 32.5021 118.263 32.4193 117.631 32.2537C117.014 32.088 116.434 31.8546 115.892 31.5534C115.365 31.2372 114.913 30.8758 114.536 30.4692L116.502 28.4814C116.863 28.873 117.292 29.1817 117.789 29.4076C118.286 29.6184 118.828 29.7238 119.415 29.7238C119.822 29.7238 120.131 29.6635 120.342 29.5431C120.567 29.4226 120.68 29.257 120.68 29.0461C120.68 28.7751 120.545 28.5718 120.274 28.4363C120.018 28.2857 119.686 28.1577 119.28 28.0523C118.873 27.9318 118.444 27.8038 117.992 27.6683C117.541 27.5327 117.111 27.3445 116.705 27.1036C116.298 26.8626 115.967 26.5313 115.711 26.1097C115.455 25.673 115.327 25.1233 115.327 24.4608C115.327 23.753 115.508 23.1431 115.869 22.6311C116.23 22.1041 116.742 21.6899 117.405 21.3888C118.068 21.0876 118.843 20.937 119.732 20.937C120.665 20.937 121.524 21.1027 122.307 21.4339C123.105 21.7502 123.752 22.2245 124.249 22.857L122.284 24.8448C121.938 24.4382 121.546 24.1521 121.11 23.9864C120.688 23.8208 120.274 23.7379 119.867 23.7379C119.476 23.7379 119.182 23.7982 118.986 23.9186C118.79 24.0241 118.693 24.1822 118.693 24.393C118.693 24.6189 118.821 24.7996 119.077 24.9351C119.333 25.0706 119.664 25.1911 120.07 25.2965C120.477 25.4019 120.906 25.5299 121.358 25.6805C121.81 25.8311 122.239 26.0344 122.646 26.2904C123.052 26.5464 123.383 26.8927 123.639 27.3294C123.895 27.7511 124.023 28.3083 124.023 29.001C124.023 30.0701 123.617 30.921 122.804 31.5534C122.006 32.1859 120.921 32.5021 119.551 32.5021Z" fill="#1A1D23"/>
        <path d="M109.663 32.2313V21.2535H113.119V32.2313H109.663ZM111.402 19.7401C110.86 19.7401 110.409 19.5594 110.047 19.198C109.701 18.8215 109.528 18.3698 109.528 17.8427C109.528 17.3006 109.701 16.8488 110.047 16.4874C110.409 16.126 110.86 15.9453 111.402 15.9453C111.945 15.9453 112.389 16.126 112.735 16.4874C113.081 16.8488 113.255 17.3006 113.255 17.8427C113.255 18.3698 113.081 18.8215 112.735 19.198C112.389 19.5594 111.945 19.7401 111.402 19.7401Z" fill="#1A1D23"/>
        <path fill-rule="evenodd" clip-rule="evenodd" d="M97.9401 36.5228C98.8587 36.9444 99.9203 37.1553 101.125 37.1553C102.3 37.1553 103.346 36.9218 104.265 36.455C105.183 35.9882 105.906 35.3407 106.433 34.5124C106.96 33.6842 107.224 32.7054 107.224 31.576V21.2532H103.836V21.9908C103.583 21.7787 103.297 21.6006 102.977 21.4565C102.39 21.1704 101.72 21.0273 100.967 21.0273C99.9579 21.0273 99.062 21.2683 98.2789 21.7502C97.4958 22.217 96.8784 22.8645 96.4267 23.6927C95.9749 24.5059 95.749 25.4245 95.749 26.4485C95.749 27.4574 95.9749 28.376 96.4267 29.2042C96.8784 30.0325 97.4958 30.6875 98.2789 31.1694C99.062 31.6513 99.9579 31.8922 100.967 31.8922C101.705 31.8922 102.375 31.7492 102.977 31.463C103.269 31.3244 103.533 31.1611 103.768 30.973V31.6663C103.768 32.4343 103.519 33.0292 103.022 33.4508C102.541 33.8724 101.87 34.0833 101.012 34.0833C100.319 34.0833 99.7245 33.9628 99.2276 33.7219C98.7457 33.4809 98.309 33.127 97.9175 32.6602L95.7942 34.7835C96.3213 35.5364 97.0365 36.1162 97.9401 36.5228ZM102.864 28.504C102.518 28.7148 102.104 28.8202 101.622 28.8202C101.14 28.8202 100.718 28.7148 100.357 28.504C100.011 28.2932 99.7396 28.0071 99.5438 27.6457C99.3481 27.2692 99.2502 26.8701 99.2502 26.4485C99.2502 25.9967 99.3481 25.5901 99.5438 25.2287C99.7396 24.8673 100.018 24.5812 100.38 24.3704C100.741 24.1596 101.155 24.0542 101.622 24.0542C102.104 24.0542 102.518 24.1596 102.864 24.3704C103.226 24.5812 103.497 24.8673 103.677 25.2287C103.873 25.5901 103.971 25.9967 103.971 26.4485C103.971 26.9003 103.873 27.3068 103.677 27.6682C103.497 28.0146 103.226 28.2932 102.864 28.504Z" fill="#1A1D23"/>
        <path d="M88.7431 32.4796C87.6137 32.4796 86.5897 32.2312 85.6711 31.7342C84.7676 31.2222 84.0523 30.5295 83.5252 29.6561C82.9982 28.7827 82.7346 27.8039 82.7346 26.7197C82.7346 25.6354 82.9982 24.6642 83.5252 23.8058C84.0523 22.9475 84.7676 22.2698 85.6711 21.7729C86.5746 21.2609 87.5986 21.0049 88.7431 21.0049C89.8875 21.0049 90.9115 21.2534 91.815 21.7503C92.7186 22.2472 93.4339 22.9324 93.9609 23.8058C94.488 24.6642 94.7515 25.6354 94.7515 26.7197C94.7515 27.8039 94.488 28.7827 93.9609 29.6561C93.4339 30.5295 92.7186 31.2222 91.815 31.7342C90.9115 32.2312 89.8875 32.4796 88.7431 32.4796ZM88.7431 29.3399C89.24 29.3399 89.6767 29.2345 90.0532 29.0237C90.4296 28.7978 90.7158 28.4891 90.9115 28.0975C91.1223 27.691 91.2277 27.2317 91.2277 26.7197C91.2277 26.2077 91.1223 25.7634 90.9115 25.387C90.7007 24.9954 90.4071 24.6943 90.0306 24.4835C89.6692 24.2576 89.24 24.1446 88.7431 24.1446C88.2612 24.1446 87.832 24.2576 87.4555 24.4835C87.0791 24.6943 86.7854 24.9954 86.5746 25.387C86.3638 25.7785 86.2584 26.2303 86.2584 26.7423C86.2584 27.2392 86.3638 27.691 86.5746 28.0975C86.7854 28.4891 87.0791 28.7978 87.4555 29.0237C87.832 29.2345 88.2612 29.3399 88.7431 29.3399Z" fill="#1A1D23"/>
        <path d="M71.2886 16.2842V32.2314H81.905V29.1142H74.8349V16.2842H71.2886Z" fill="#1A1D23"/>
        <path fill-rule="evenodd" clip-rule="evenodd" d="M60.6517 16.2842C61.8564 16.2842 62.9632 16.4799 63.9722 16.8715C64.9962 17.2479 65.8846 17.7976 66.6376 18.5204C67.4056 19.2282 67.9928 20.0715 68.3994 21.0503C68.8211 22.014 69.0319 23.0832 69.0319 24.2578C69.0319 25.4173 68.8211 26.4865 68.3994 27.4653C67.9928 28.4441 67.4131 29.2874 66.6601 29.9952C65.9072 30.7029 65.0187 31.2526 63.9947 31.6441C62.9858 32.0356 61.8865 32.2314 60.6969 32.2314H54.2593V16.2842H60.6517ZM60.6065 29.1142H57.8056V19.3788H60.6065C61.5703 19.3788 62.4061 19.5745 63.1138 19.966C63.8366 20.3576 64.3938 20.9147 64.7853 21.6376C65.1919 22.3604 65.3952 23.2263 65.3952 24.2352C65.3952 25.2441 65.1994 26.1175 64.8079 26.8554C64.4164 27.5933 63.8592 28.158 63.1364 28.5495C62.4136 28.926 61.5703 29.1142 60.6065 29.1142Z" fill="#1A1D23"/>
        <path d="M42.7936 31.9151C43.7122 32.2916 44.7211 32.4799 45.8204 32.4799C47.0703 32.4799 48.1545 32.254 49.0731 31.8022C50.0068 31.3504 50.7296 30.718 51.2416 29.9048C51.7686 29.0916 52.0322 28.158 52.0322 27.1039C52.0322 26.1401 51.8364 25.3119 51.4449 24.6192C51.0684 23.9114 50.5564 23.3693 49.9089 22.9928C49.359 22.6603 48.7493 22.469 48.0799 22.4189L51.7385 18.2493V16.2842H41.4609V19.2884H46.8975L43.8778 22.8347V24.7999C44.0887 24.7246 44.3447 24.6719 44.6458 24.6418C44.9621 24.5966 45.2632 24.574 45.5494 24.574C46.1668 24.574 46.6938 24.6719 47.1305 24.8677C47.5823 25.0634 47.9211 25.342 48.147 25.7034C48.3879 26.0498 48.5084 26.4714 48.5084 26.9684C48.5084 27.4653 48.3879 27.8945 48.147 28.2559C47.9211 28.6173 47.6049 28.8959 47.1983 29.0916C46.7917 29.2874 46.3098 29.3853 45.7527 29.3853C45.1352 29.3853 44.548 29.2573 43.9908 29.0013C43.4487 28.7302 43.0346 28.3839 42.7484 27.9622L40.467 30.2436C41.0995 30.9664 41.875 31.5236 42.7936 31.9151Z" fill="#1A1D23"/>
    </g>
    <g clip-path="url(#clip1_2316_14994)">
        <path d="M27.6746 31.9419L13.8947 39.8977L0.114746 31.9419V39.8977L13.8947 47.8536L27.6746 39.8977V31.9419Z" fill="#7AA7FF"/>
        <path d="M27.6746 23.9858L13.8947 31.9417L0.114746 23.9858V31.9417L13.8947 39.8975L27.6746 31.9417V23.9858Z" fill="#1F69FF"/>
        <path d="M13.8947 16.0303L27.6746 23.9861L13.8947 31.9419L0.114746 23.9861L13.8947 16.0303Z" fill="#004DE6"/>
        <path d="M27.6746 16.0301L13.8947 8.07422L0.114746 16.0301V23.9859L13.8947 16.0301L27.6746 23.9859V16.0301Z" fill="#5BD79D"/>
        <path d="M27.6746 8.07448L13.8947 0.118652L0.114746 8.07448V16.0303L13.8947 8.07448L27.6746 16.0303V8.07448Z" fill="#ADEBCE"/>
    </g>
    <defs>
        <clipPath id="clip0_2316_14994">
            <rect width="115.292" height="21.5885" fill="white" transform="translate(40.3062 15.7461)"/>
        </clipPath>
        <clipPath id="clip1_2316_14994">
            <rect width="27.5598" height="47.7703" fill="white" transform="translate(0.114746 0.114746)"/>
        </clipPath>
    </defs>
</svg>
