<svg width="24" height="40" viewBox="0 0 24 40" fill="none" xmlns="http://www.w3.org/2000/svg">
<g id="Logo">
<path id="1" d="M23.5383 26.6499L11.9999 33.3116L0.461426 26.6499V33.3116L11.9999 39.9734L23.5383 33.3116V26.6499Z" fill="#B9BECA"/>
<path id="2" d="M23.5383 19.9883L11.9999 26.65L0.461426 19.9883V26.65L11.9999 33.3117L23.5383 26.65V19.9883Z" fill="#8B93A7"/>
<path id="3" d="M11.9999 13.3264L23.5383 19.9881L11.9999 26.6499L0.461426 19.9881L11.9999 13.3264Z" fill="#6A738B"/>
<path id="4" d="M23.5383 13.3265L11.9999 6.66479L0.461426 13.3265V19.9883L11.9999 13.3265L23.5383 19.9883V13.3265Z" fill="#A2A9B9"/>
<path id="5" d="M23.5383 6.66466L11.9999 0.00292969L0.461426 6.66466V13.3264L11.9999 6.66466L23.5383 13.3264V6.66466Z" fill="#D1D4DC"/>
</g>
</svg>
