<svg width="121" height="209" viewBox="0 0 121 209" fill="none" xmlns="http://www.w3.org/2000/svg">
<g id="Logo">
<path id="1" d="M120.102 138.806L60.1016 173.447L0.101562 138.806V173.447L60.1016 208.088L120.102 173.447V138.806Z" fill="#8EB4FF"/>
<path id="2" d="M120.102 104.165L60.1016 138.806L0.101562 104.165V138.806L60.1016 173.447L120.102 138.806V104.165Z" fill="#1F69FF"/>
<path id="3" d="M60.1016 69.5244L120.102 104.165L60.1016 138.806L0.101562 104.165L60.1016 69.5244Z" fill="#0B50DA"/>
<path id="4" d="M120.102 69.5243L60.1016 34.8833L0.101562 69.5243V104.165L60.1016 69.5243L120.102 104.165V69.5243Z" fill="#5BD79D"/>
<path id="5" d="M120.102 34.8832L60.1016 0.242188L0.101562 34.8832V69.5242L60.1016 34.8832L120.102 69.5242V34.8832Z" fill="#ADEBCE"/>
</g>
</svg>
